# xmcd
#
# Track frame offsets: 
#        150
#        10082
#        23905
#        35732
#        48375
#        60587
#        74050
#        85560
#        98567
#        112170
#        124307
#        136275
#        148412
#        160987
#        173360
#        184362
#        197212
#        210222
#        221162
#        234730
#        247807
#        261452
#        272292
#        285377
#        295460
#        306020
#        319032
#        332727
#        344362
#
# Disc length: 4748 seconds
#
# Revision: 3
# Processed by: cddbd v1.5.2PL0 Copyright (c) Steve Scherf et al.
# Submitted via: ExactAudioCopyFreeDBPlugin 1.0
#
DISCID=ba128a1d
DTITLE=Various Artist - Blowing the Fuse:  459 R&B Classics, 1945-196
DTITLE=0 [Bear Family]
DYEAR=1954
DGENRE=Rhythm and Blues
TTITLE0=The Crows - Gee
TTITLE1=Little Walter and His Jukes - You're So Fine
TTITLE2=Johnny Ace and His Band - Saving My Love for You
TTITLE3=Faye Adams with the Joe Morris Orchestra - I'll Be True
TTITLE4=The Spiders - I Didn't Want to Do It
TTITLE5=The Harptones feat Willie Winfield - A Sunday Kind of Love
TTITLE6=The "5" Royales with Charlie ‘Little Jazz’ Ferguson and His Orch
TTITLE6=estra - I Do
TTITLE7=Buddy and His Orchestra feat Ella Johnson - I'm Just Your Fool
TTITLE8=Guitar Slim and His Band - The Things That I Used to Do
TTITLE9=The Clovers - Lovey Dovey
TTITLE10=Ray Charles and His Orchestra - It Should Have Been Me
TTITLE11=The Spaniels - Goodnite Sweetheart, Goodnite
TTITLE12=Cozy Eggleston and His Combo - Big Heavy (Blue Light Boogie)
TTITLE13=The Midnighters - Work with Me Annie
TTITLE14=Sugar Roy Crawford and His Cane Cutters - Jock-A-Mo
TTITLE15=Muddy Waters and His Guitar - I Just Want to Make Love to You
TTITLE16=Chuck Willis - I Feel So Bad
TTITLE17=The Chords - Sh-Boom
TTITLE18=Big Joe Turner and His Blues Kings  - Shake, Rattle and Roll
TTITLE19=Ruth Brown and Her Rhythmakers with Orchestra - Oh What a Dream
TTITLE20=The Robins - Riot in Cell Block #9
TTITLE21=The Drifters feat Clyde McPhatter - Honey Love
TTITLE22=Howlin' Wolf - Evil is Goin' On
TTITLE23=Shirley Gunter  and The Queens - Oop Shoop
TTITLE24=Dave Bartholomew - Jump Children
TTITLE25=The Cadillacs with the Jesse Powell Orchestra - Gloria
TTITLE26=B.B. King and His Orchestra - You Upset Me Baby
TTITLE27=The Charms - Hearts of Stone
TTITLE28=Joe Houston - All Night Long
EXTD=
EXTT0=
EXTT1=
EXTT2=
EXTT3=
EXTT4=
EXTT5=
EXTT6=
EXTT7=
EXTT8=
EXTT9=
EXTT10=
EXTT11=
EXTT12=
EXTT13=
EXTT14=
EXTT15=
EXTT16=
EXTT17=
EXTT18=
EXTT19=
EXTT20=
EXTT21=
EXTT22=
EXTT23=
EXTT24=
EXTT25=
EXTT26=
EXTT27=
EXTT28=
PLAYORDER=
